<?xml version="1.0" encoding="utf-8"?>
<!-- Generator: Adobe Illustrator 26.5.0, SVG Export Plug-In . SVG Version: 6.00 Build 0)  -->
<svg version="1.1" id="Layer_1" xmlns="http://www.w3.org/2000/svg" xmlns:xlink="http://www.w3.org/1999/xlink" x="0px" y="0px"
	 viewBox="0 0 213.8 49.6" style="enable-background:new 0 0 213.8 49.6;" xml:space="preserve">
<style type="text/css">
	.st0{enable-background:new    ;}
	.st1{fill:#F4C519;}
	.st2{fill:#1049AF;}
	.st3{fill:#F7BC16;}
	.st4{fill:#04348C;}
	.st5{fill:none;}
</style>
<g class="st0">
	<path class="st1" d="M16.1,14.5H19V26c0,0.6,0.3,0.8,0.8,0.8h5.3c0.4,0,0.6,0.2,0.6,0.7c0,1-0.4,1.6-1.1,1.6H19
		c-1,0-1.7-0.2-2.2-0.6c-0.5-0.4-0.7-1-0.7-1.9V14.5z M23.5,19.8h4v-6.4h2.9v19.5c0,2.1-0.6,3.2-1.7,3.2h-0.4
		c-0.5,0-0.8-0.3-0.8-0.8v-13h-4V19.8z M35.3,33.1c0,2.1-0.6,3.2-1.7,3.2h-0.4c-0.5,0-0.8-0.3-0.8-0.8V13.3h2.8V33.1z"/>
	<path class="st1" d="M50.9,16.6c0,3-0.9,5.5-2.6,7.7c-1.8,2.2-4.1,3.9-7.1,5.1c-0.5,0.2-0.9,0-1.3-0.7c-0.3-0.7-0.2-1.1,0.3-1.4
		c1.1-0.4,2.1-1,3-1.7c0.9-0.7,1.8-1.5,2.5-2.4c1.5-1.8,2.2-4,2.2-6.4h-7.6v-2.3h9.3c0.9,0,1.3,0.4,1.3,1.3V16.6z M57.5,33.1
		c0,2.2-0.6,3.2-1.8,3.2h-0.4c-0.5,0-0.8-0.3-0.8-0.8V13.3h2.9v7.2h2.9c0.4,0,0.6,0.3,0.6,0.8c0,1.1-0.4,1.7-1.2,1.7h-2.4V33.1z"/>
</g>
<g class="st0">
	<path class="st1" d="M68.7,29.4c0,0-0.2,0-0.5,0c-0.3,0-0.5-0.1-0.8-0.4c-0.2-0.2-0.3-0.3-0.4-0.5C67,28.4,67,28.2,67,28.1
		c0-0.2,0-0.3,0.1-0.5c0.1-0.1,0.2-0.3,0.4-0.4c1.5-1.3,2.7-2.8,3.4-4.5s1.1-3.6,1.1-5.9v-2.7h2.9v2.7c0,2.7,0.5,4.9,1.5,6.6
		s2.1,3.1,3.5,4.1c0.1,0.1,0.2,0.2,0.3,0.3c0.1,0.1,0.1,0.2,0.1,0.4c0,0.2-0.1,0.3-0.2,0.5c-0.1,0.2-0.3,0.4-0.4,0.5
		c-0.2,0.2-0.4,0.3-0.6,0.4c-0.2,0.1-0.4,0.1-0.6-0.1c-0.8-0.5-1.7-1.3-2.8-2.6c-1.1-1.3-1.8-2.4-2.2-3.4c-0.6,1.3-1.3,2.4-2.1,3.3
		C70.6,27.9,69.7,28.7,68.7,29.4z M85.6,33.1c0,2.2-0.6,3.2-1.7,3.2h-0.4c-0.5,0-0.8-0.3-0.8-0.8V13.3h2.9v7.2h2.9
		c0.4,0,0.7,0.3,0.7,0.8c0,1.1-0.4,1.7-1.2,1.7h-2.4V33.1z"/>
	<path class="st1" d="M89.6,24.5h21.3c0.4,0,0.6,0.3,0.6,0.8c0,1-0.4,1.5-1.1,1.5H89.6V24.5z M92.6,13.6h2.9v5
		c0,0.6,0.3,0.8,0.8,0.8h12.1c0.4,0,0.6,0.2,0.6,0.7c0,1-0.4,1.6-1.1,1.6H95.5c-1,0-1.7-0.2-2.2-0.6s-0.7-1-0.7-1.9V13.6z
		 M92.8,29.2h2.9v3.6c0,0.6,0.3,0.8,0.8,0.8h11.6c0.4,0,0.6,0.2,0.6,0.7c0,1-0.4,1.6-1.1,1.6h-12c-1,0-1.7-0.2-2.1-0.6
		c-0.4-0.4-0.7-1-0.7-1.9V29.2z"/>
</g>
<g class="st0">
	<path class="st2" d="M139.5,28.5c0.2,0.5,0.2,0.9,0.1,1.4c-0.1,0.4-0.5,0.7-1,0.9c-0.3,0.2-0.8,0.3-1.5,0.5
		c-0.7,0.2-1.4,0.4-2.3,0.5c-0.9,0.2-1.8,0.3-2.9,0.4c-1,0.1-2.1,0.2-3.2,0.2c-1.1,0-2.1-0.1-3.2-0.2c-1.1-0.1-2-0.2-2.9-0.4
		c-0.9-0.2-1.7-0.3-2.4-0.5c-0.7-0.2-1.2-0.4-1.6-0.5c-0.5-0.2-0.8-0.5-1-0.9c-0.2-0.5-0.1-0.9,0.2-1.4c0.1-0.2,0.3-0.4,0.5-0.4
		c0.2-0.1,0.5-0.1,0.7-0.1c0.2,0,0.5,0.1,0.7,0.1s0.5,0.1,0.7,0.2c0.2,0.1,0.5,0.2,1,0.3s1.1,0.2,1.8,0.4c0.7,0.1,1.5,0.2,2.5,0.3
		c0.9,0.1,1.9,0.1,3,0.1c1.2,0,2.2,0,3.1-0.1c0.9-0.1,1.6-0.2,2.2-0.4c0.6-0.1,1.1-0.2,1.5-0.4c0.4-0.1,0.7-0.2,0.9-0.3
		c0.2-0.1,0.5-0.1,0.7-0.2c0.3-0.1,0.6-0.1,0.9-0.1c0.3,0,0.5,0,0.8,0.1C139.2,28.1,139.4,28.2,139.5,28.5z M131.8,26.1
		c0.9-3.2,1.3-6,1.3-8.3v-0.8h-12.2V14h14.2c1,0,1.5,0.5,1.5,1.4v2.1c0,2.1-0.5,4.7-1.4,7.6c-0.2,0.6-0.5,0.9-1.1,0.9H131.8z"/>
</g>
<g class="st0">
	<path class="st2" d="M145.9,14h10.9c0.4,0,0.7,0.3,0.7,1c0,1.2-0.4,1.8-1.2,1.8h-2.9v0.7c0,0.6,0.4,1.4,1.1,2.2
		c0.8,0.9,1.8,1.7,3,2.4c0.6,0.4,0.7,1,0.2,1.8c-0.5,0.8-1.1,1.1-1.7,0.7c-1.8-0.8-3.2-1.9-4.3-3.1c-1,1.4-2.5,2.5-4.3,3.5
		c-0.6,0.3-1.2,0.1-1.7-0.7c-0.5-0.7-0.4-1.3,0.2-1.8c1.2-0.8,2.2-1.7,2.9-2.6c0.7-1,1-1.8,1-2.4v-0.7h-3.8V14z M152,26.1v2.6h8.1
		v-2.6h3.5v5.3c0,3.3-0.8,4.9-2.5,4.9h-9.6c-1.9,0-2.9-1-2.9-2.9v-7.3H152z M152.9,33.5h6.4c0.5,0,0.8-0.5,0.8-1.5v-0.5H152v1.1
		C152,33.2,152.3,33.5,152.9,33.5z M163.5,21.7c0,2.4-0.7,3.5-2.1,3.5H161c-0.6,0-0.9-0.3-0.9-0.9V13.1h3.5V21.7z"/>
</g>
<g>
	<path class="st3" d="M199.8,16.2c-0.2-1.4-1.1-2.5-1.7-3.7s-0.4-1.5-0.9-1.8s-0.5,2.1-0.5,2.1s0-2.1-0.8-2.2
		c-0.7-0.1-0.2,2.6-0.2,2.6s-0.4-1.8-1.1-1.7c-0.5,0.1-0.1,2.1,0.2,3.3c0.1,0.3-0.3,0.5-0.5,0.4c-0.3-0.2-0.7-0.3-0.7,0.2
		c-0.1,0.8,1.3,1.7,1.7,1.9c0.1,0.1,0.2,0.2,0.2,0.3c0,0.7,0,3-0.6,3c-0.5,0-2.2-1-3.4-1.6c-0.4-0.2-0.7-0.5-0.9-1l-0.8-1.5
		l-3.4-6.8c-1-2.1-3.9-2.1-5,0l-3.5,6.8L177,18l0,0c0,0-7.9-0.8-8.4,1.8c-0.5,2.5,0.8,5.4,4,7.6c0.5,0.3,1.1,0.3,1.6,0l0,0l0,0l0,0
		c0.1-0.1,0.3-0.1,0.4,0c0.4,0.4,1,0.6,1.6,0.6h2.3c0.2,0,0.3,0.1,0.3,0.3V39c0,0.1,0,0.2-0.1,0.2l-1.3,1.7c-0.2,0.2,0,0.5,0.3,0.5
		h6.1h6.6c0.3,0,0.5-0.4,0.2-0.6l-1.9-1.6c-0.1-0.1-0.1-0.2-0.1-0.3V28.4c0-0.2,0.1-0.3,0.3-0.3h2.5c1.5,0,2.6-1.4,2.5-2.9
		c0-0.2,0.2-0.4,0.4-0.4c1.3,0.3,2.8-0.1,4-1.6C199.9,21.4,199.9,17,199.8,16.2z M172.9,22.4c-0.2-0.2,0-0.6,0.3-0.6
		c0.4,0.1,1,0.2,1.7,0.3l0,0l-0.6,1.3c-0.1,0.2-0.4,0.2-0.6,0C173.4,23,173.1,22.6,172.9,22.4z"/>
	<path class="st4" d="M184.2,41.6c-0.1,0-0.2-0.1-0.2-0.2V29.5c0-0.1,0.1-0.2,0.2-0.2c0.1,0,0.2,0.1,0.2,0.2v11.9
		C184.3,41.5,184.3,41.6,184.2,41.6z"/>
	<path class="st4" d="M172.6,22.1h-0.1l-0.9-0.8c-0.1-0.1-0.1-0.2,0-0.2c0.1-0.1,0.2-0.1,0.2,0l0.9,0.8
		C172.8,22,172.8,22.1,172.6,22.1C172.8,22.1,172.7,22.1,172.6,22.1z"/>
	<path class="st5" d="M173.9,27.6C173.8,27.6,173.8,27.6,173.9,27.6c-0.2-0.1-0.2-0.2-0.2-0.3c0.2-0.5,0.7-0.8,1.2-1
		c0.4-0.2,0.8-0.5,0.9-0.8c0-0.1,0-0.1,0-0.1c-0.1,0-0.4,0-0.7,0.2c-0.1,0.1-0.2,0.1-0.4,0.2c-0.1,0-0.2,0-0.2-0.1
		c-0.1-0.1,0-0.2,0.1-0.2s0.2-0.1,0.4-0.2c0.6-0.4,0.9-0.7,1-0.9c0-0.1,0-0.2-0.1-0.3l0,0c-0.1,0-0.4,0-0.6,0.2
		c-0.4,0.4-0.9,0.5-0.9,0.5c-0.1,0-0.2,0-0.2-0.1s0-0.2,0.1-0.2c0.1-0.1,0.5-0.3,0.9-0.5c0.2-0.2,0.3-0.4,0.4-0.7c0-0.1,0-0.2,0-0.2
		c-0.1,0-0.6,0.2-0.9,0.4c-0.1,0.1-0.2,0-0.2,0s0-0.2,0.1-0.2c0.3-0.2,1-0.6,1.4-0.4c0.1,0.1,0.2,0.3,0.1,0.6c0,0.1-0.1,0.2-0.1,0.4
		c0.1,0,0.2,0,0.3,0s0.2,0.1,0.3,0.2c0.1,0.2,0.1,0.4,0.1,0.5c-0.1,0.2-0.2,0.4-0.4,0.5h0.1c0.1,0.1,0.2,0.2,0.2,0.4
		c0,0.5-0.5,0.8-1,1c-0.4,0.2-0.9,0.5-1.1,0.9C174,27.6,173.9,27.6,173.9,27.6z"/>
	<ellipse class="st4" cx="182" cy="14.1" rx="0.4" ry="0.8"/>
	<ellipse class="st4" cx="184.4" cy="14.1" rx="0.4" ry="0.8"/>
	<path class="st4" d="M186.5,16.2c-0.4,0.1-0.7,0.1-0.9,0c-0.3-0.2-0.3-0.7-0.3-0.7c0-0.1-0.1-0.2-0.2-0.2c-0.1,0-0.2,0.1-0.2,0.2
		c0,0,0,0.6,0.3,0.9c-1.5,1.4-3.1,0.7-3.1,0.6c-0.1,0-0.2,0-0.3,0.1s0,0.2,0.1,0.3c0,0,0.6,0.2,1.3,0.2s1.6-0.2,2.4-1
		c0.1,0,0.3,0.1,0.4,0.1c0.2,0,0.4,0,0.6-0.1c0.1,0,0.2-0.2,0.1-0.3C186.8,16.3,186.6,16.2,186.5,16.2z"/>
</g>
</svg>
